<svg host="65bd71144e" xmlns="http://www.w3.org/2000/svg" style="background: transparent; background-color: transparent;" xmlns:xlink="http://www.w3.org/1999/xlink" version="1.1" width="707px" height="197px" viewBox="-0.5 -0.5 707 197" content="&lt;mxfile&gt;&lt;diagram id=&quot;factor-graph&quot; name=&quot;Page-1&quot;&gt;7ZnNk5owGIf/GmZ2D52BhA89ru5HLz156LGTwsvHbCQ0hgX71zeYoCKlrbMjka0XJb8EkzzP65hBCy/X9QsnRfqFRUAtZEe1hR8thPyZL1+bYKuCILBVkPAsUpFzCFbZT9BhO6zMIth0BgrGqMiKbhiyPIdQdDLCOau6w2JGu7MWJIFesAoJ7adfs0ikOnX8+aHjM2RJqqeeoUB1rMl+sAo2KYlYpaLd5vCThZecMaGu1vUSaMOu5aIIPA/07hfGIRf/ckOt73gjtNSbs7zlnUzqb7LLlo17vVKxbbcvP0KSlo1FlWYCVgUJm55KupZZKtZUthx5STaFwh9nNcgZF3FG6ZJRxmUWQUxKKnsXG8HZKwzlLWHU3M9yocsBebrdv68Pod0lcAH1UaShvABbg+DbZtu619OlpisUBZ5qVwffvqui9Mh0mxFdYcn+kw8S5IX2MOAE9Z0gXxEpSN5x4f8om1JZhArCg+zkyfc7uXg5jd2+3e+gtGPlVbJ7b0WjvWhf83tWE+lx/6F/7Bj0j0f2j2/+T/27gUH/7sj+3Zv/U/8+NujfG9m/d/N/6j+Ym/MfD57J4uEzGWdlHjWMH+2/e5mMBuSijgbH7WvwUF9Dm71LA7nM19BuaH2q9Gqboa5t/+kLGp99QDNeDCu9Fueiv9G2weIY94wWn31GM14CF1Hu+QaVj3ssi88+ln1M5QEypxycHmTIo4fmCZJs5SyHLtQ+piGgv8d1CnUQ34aVPITucUEQnoAe1j7WgajzIKsPmQMlInvrPtd6FzI0VWTIGDI8BWTkqqrMnSoyc1XmTQEZvipk/lSRYWPIgqkic40hm00BmXtVyOZTReaNhEw2D38i7vqO/onFT78A&lt;/diagram&gt;&lt;/mxfile&gt;">
    <defs>
        <style xmlns="http://www.w3.org/1999/xhtml" id="MJX-SVG-styles">
            mjx-container[jax="SVG"] {
  direction: ltr;
}

mjx-container[jax="SVG"] &gt; svg {
  overflow: visible;
  min-height: 1px;
  min-width: 1px;
}

mjx-container[jax="SVG"] &gt; svg a {
  fill: blue;
  stroke: blue;
}

mjx-container[jax="SVG"][display="true"] {
  display: block;
  text-align: center;
  margin: 1em 0;
}

mjx-container[jax="SVG"][display="true"][width="full"] {
  display: flex;
}

mjx-container[jax="SVG"][justify="left"] {
  text-align: left;
}

mjx-container[jax="SVG"][justify="right"] {
  text-align: right;
}

g[data-mml-node="merror"] &gt; g {
  fill: red;
  stroke: red;
}

g[data-mml-node="merror"] &gt; rect[data-background] {
  fill: yellow;
  stroke: none;
}

g[data-mml-node="mtable"] &gt; line[data-line], svg[data-table] &gt; g &gt; line[data-line] {
  stroke-width: 70px;
  fill: none;
}

g[data-mml-node="mtable"] &gt; rect[data-frame], svg[data-table] &gt; g &gt; rect[data-frame] {
  stroke-width: 70px;
  fill: none;
}

g[data-mml-node="mtable"] &gt; .mjx-dashed, svg[data-table] &gt; g &gt; .mjx-dashed {
  stroke-dasharray: 140;
}

g[data-mml-node="mtable"] &gt; .mjx-dotted, svg[data-table] &gt; g &gt; .mjx-dotted {
  stroke-linecap: round;
  stroke-dasharray: 0,140;
}

g[data-mml-node="mtable"] &gt; g &gt; svg {
  overflow: visible;
}

[jax="SVG"] mjx-tool {
  display: inline-block;
  position: relative;
  width: 0;
  height: 0;
}

[jax="SVG"] mjx-tool &gt; mjx-tip {
  position: absolute;
  top: 0;
  left: 0;
}

mjx-tool &gt; mjx-tip {
  display: inline-block;
  padding: .2em;
  border: 1px solid #888;
  font-size: 70%;
  background-color: #F8F8F8;
  color: black;
  box-shadow: 2px 2px 5px #AAAAAA;
}

g[data-mml-node="maction"][data-toggle] {
  cursor: pointer;
}

mjx-status {
  display: block;
  position: fixed;
  left: 1em;
  bottom: 1em;
  min-width: 25%;
  padding: .2em .4em;
  border: 1px solid #888;
  font-size: 90%;
  background-color: #F8F8F8;
  color: black;
}

foreignObject[data-mjx-xml] {
  font-family: initial;
  line-height: normal;
  overflow: visible;
}

mjx-container[jax="SVG"] path[data-c], mjx-container[jax="SVG"] use[data-c] {
  stroke-width: 3;
}
        </style>
    </defs>
    <g>
        <g>
            <ellipse cx="33" cy="163" rx="32" ry="32" fill="#ffffff" stroke="#000000" stroke-width="2" pointer-events="all" style="fill: light-dark(#ffffff, var(--ge-dark-color, #121212)); stroke: light-dark(rgb(0, 0, 0), rgb(255, 255, 255));"/>
        </g>
        <g>
            <g transform="translate(-0.5 -0.5)">
                <switch>
                    <foreignObject style="overflow: visible; text-align: left;" pointer-events="none" width="100%" height="100%" requiredFeatures="http://www.w3.org/TR/SVG11/feature#Extensibility">
                        <div xmlns="http://www.w3.org/1999/xhtml" style="display: flex; align-items: unsafe center; justify-content: unsafe center; width: 62px; height: 1px; padding-top: 163px; margin-left: 2px;">
                            <div style="box-sizing: border-box; font-size: 0; text-align: center; color: #000000; ">
                                <div style="display: inline-block; font-size: 25px; font-family: &quot;Helvetica&quot;; color: light-dark(#000000, #ffffff); line-height: 1.2; pointer-events: all; white-space: normal; word-wrap: normal; ">
                                    <mjx-container class="MathJax" jax="SVG">
                                        <svg xmlns="http://www.w3.org/2000/svg" width="2.282ex" height="1.339ex" role="img" focusable="false" viewBox="0 -442 1008.6 592" xmlns:xlink="http://www.w3.org/1999/xlink" style="vertical-align: -0.339ex;">
                                            <defs>
                                                <path id="MJX-312-TEX-I-1D465" d="M52 289Q59 331 106 386T222 442Q257 442 286 424T329 379Q371 442 430 442Q467 442 494 420T522 361Q522 332 508 314T481 292T458 288Q439 288 427 299T415 328Q415 374 465 391Q454 404 425 404Q412 404 406 402Q368 386 350 336Q290 115 290 78Q290 50 306 38T341 26Q378 26 414 59T463 140Q466 150 469 151T485 153H489Q504 153 504 145Q504 144 502 134Q486 77 440 33T333 -11Q263 -11 227 52Q186 -10 133 -10H127Q78 -10 57 16T35 71Q35 103 54 123T99 143Q142 143 142 101Q142 81 130 66T107 46T94 41L91 40Q91 39 97 36T113 29T132 26Q168 26 194 71Q203 87 217 139T245 247T261 313Q266 340 266 352Q266 380 251 392T217 404Q177 404 142 372T93 290Q91 281 88 280T72 278H58Q52 284 52 289Z"/>
                                                <path id="MJX-312-TEX-N-31" d="M213 578L200 573Q186 568 160 563T102 556H83V602H102Q149 604 189 617T245 641T273 663Q275 666 285 666Q294 666 302 660V361L303 61Q310 54 315 52T339 48T401 46H427V0H416Q395 3 257 3Q121 3 100 0H88V46H114Q136 46 152 46T177 47T193 50T201 52T207 57T213 61V578Z"/>
                                            </defs>
                                            <g stroke="currentColor" fill="currentColor" stroke-width="0" transform="scale(1,-1)">
                                                <g data-mml-node="math">
                                                    <g data-mml-node="msub">
                                                        <g data-mml-node="mi">
                                                            <use data-c="1D465" xlink:href="#MJX-312-TEX-I-1D465"/>
                                                        </g>
                                                        <g data-mml-node="mn" transform="translate(605,-150) scale(0.707)">
                                                            <use data-c="31" xlink:href="#MJX-312-TEX-N-31"/>
                                                        </g>
                                                    </g>
                                                </g>
                                            </g>
                                        </svg>
                                    </mjx-container>
                                </div>
                            </div>
                        </div>
                    </foreignObject>
                    <text x="33" y="171" fill="light-dark(#000000, #ffffff)" font-family="&quot;Helvetica&quot;" font-size="25px" text-anchor="middle">
                        \( x_...
                    </text>
                </switch>
            </g>
        </g>
        <g>
            <ellipse cx="193" cy="163" rx="32" ry="32" fill="#ffffff" stroke="#000000" stroke-width="2" pointer-events="all" style="fill: light-dark(#ffffff, var(--ge-dark-color, #121212)); stroke: light-dark(rgb(0, 0, 0), rgb(255, 255, 255));"/>
        </g>
        <g>
            <g transform="translate(-0.5 -0.5)">
                <switch>
                    <foreignObject style="overflow: visible; text-align: left;" pointer-events="none" width="100%" height="100%" requiredFeatures="http://www.w3.org/TR/SVG11/feature#Extensibility">
                        <div xmlns="http://www.w3.org/1999/xhtml" style="display: flex; align-items: unsafe center; justify-content: unsafe center; width: 62px; height: 1px; padding-top: 163px; margin-left: 162px;">
                            <div style="box-sizing: border-box; font-size: 0; text-align: center; color: #000000; ">
                                <div style="display: inline-block; font-size: 25px; font-family: &quot;Helvetica&quot;; color: light-dark(#000000, #ffffff); line-height: 1.2; pointer-events: all; white-space: normal; word-wrap: normal; ">
                                    <span style="color: light-dark(rgb(0, 0, 0), rgb(237, 237, 237));">
                                        <mjx-container class="MathJax" jax="SVG">
                                            <svg xmlns="http://www.w3.org/2000/svg" width="2.282ex" height="1.339ex" role="img" focusable="false" viewBox="0 -442 1008.6 592" xmlns:xlink="http://www.w3.org/1999/xlink" style="vertical-align: -0.339ex;">
                                                <defs>
                                                    <path id="MJX-313-TEX-I-1D465" d="M52 289Q59 331 106 386T222 442Q257 442 286 424T329 379Q371 442 430 442Q467 442 494 420T522 361Q522 332 508 314T481 292T458 288Q439 288 427 299T415 328Q415 374 465 391Q454 404 425 404Q412 404 406 402Q368 386 350 336Q290 115 290 78Q290 50 306 38T341 26Q378 26 414 59T463 140Q466 150 469 151T485 153H489Q504 153 504 145Q504 144 502 134Q486 77 440 33T333 -11Q263 -11 227 52Q186 -10 133 -10H127Q78 -10 57 16T35 71Q35 103 54 123T99 143Q142 143 142 101Q142 81 130 66T107 46T94 41L91 40Q91 39 97 36T113 29T132 26Q168 26 194 71Q203 87 217 139T245 247T261 313Q266 340 266 352Q266 380 251 392T217 404Q177 404 142 372T93 290Q91 281 88 280T72 278H58Q52 284 52 289Z"/>
                                                    <path id="MJX-313-TEX-N-32" d="M109 429Q82 429 66 447T50 491Q50 562 103 614T235 666Q326 666 387 610T449 465Q449 422 429 383T381 315T301 241Q265 210 201 149L142 93L218 92Q375 92 385 97Q392 99 409 186V189H449V186Q448 183 436 95T421 3V0H50V19V31Q50 38 56 46T86 81Q115 113 136 137Q145 147 170 174T204 211T233 244T261 278T284 308T305 340T320 369T333 401T340 431T343 464Q343 527 309 573T212 619Q179 619 154 602T119 569T109 550Q109 549 114 549Q132 549 151 535T170 489Q170 464 154 447T109 429Z"/>
                                                </defs>
                                                <g stroke="currentColor" fill="currentColor" stroke-width="0" transform="scale(1,-1)">
                                                    <g data-mml-node="math">
                                                        <g data-mml-node="msub">
                                                            <g data-mml-node="mi">
                                                                <use data-c="1D465" xlink:href="#MJX-313-TEX-I-1D465"/>
                                                            </g>
                                                            <g data-mml-node="mn" transform="translate(605,-150) scale(0.707)">
                                                                <use data-c="32" xlink:href="#MJX-313-TEX-N-32"/>
                                                            </g>
                                                        </g>
                                                    </g>
                                                </g>
                                            </svg>
                                        </mjx-container>
                                    </span>
                                </div>
                            </div>
                        </div>
                    </foreignObject>
                    <text x="193" y="171" fill="light-dark(#000000, #ffffff)" font-family="&quot;Helvetica&quot;" font-size="25px" text-anchor="middle">
                        \( x_...
                    </text>
                </switch>
            </g>
        </g>
        <g>
            <ellipse cx="353" cy="163" rx="32" ry="32" fill="#ffffff" stroke="#000000" stroke-width="2" pointer-events="all" style="fill: light-dark(#ffffff, var(--ge-dark-color, #121212)); stroke: light-dark(rgb(0, 0, 0), rgb(255, 255, 255));"/>
        </g>
        <g>
            <g transform="translate(-0.5 -0.5)">
                <switch>
                    <foreignObject style="overflow: visible; text-align: left;" pointer-events="none" width="100%" height="100%" requiredFeatures="http://www.w3.org/TR/SVG11/feature#Extensibility">
                        <div xmlns="http://www.w3.org/1999/xhtml" style="display: flex; align-items: unsafe center; justify-content: unsafe center; width: 62px; height: 1px; padding-top: 163px; margin-left: 322px;">
                            <div style="box-sizing: border-box; font-size: 0; text-align: center; color: #000000; ">
                                <div style="display: inline-block; font-size: 25px; font-family: &quot;Helvetica&quot;; color: light-dark(#000000, #ffffff); line-height: 1.2; pointer-events: all; white-space: normal; word-wrap: normal; ">
                                    <span style="color: light-dark(rgb(0, 0, 0), rgb(237, 237, 237));">
                                        <mjx-container class="MathJax" jax="SVG">
                                            <svg xmlns="http://www.w3.org/2000/svg" width="2.282ex" height="1.375ex" role="img" focusable="false" viewBox="0 -442 1008.6 607.6" xmlns:xlink="http://www.w3.org/1999/xlink" style="vertical-align: -0.375ex;">
                                                <defs>
                                                    <path id="MJX-314-TEX-I-1D465" d="M52 289Q59 331 106 386T222 442Q257 442 286 424T329 379Q371 442 430 442Q467 442 494 420T522 361Q522 332 508 314T481 292T458 288Q439 288 427 299T415 328Q415 374 465 391Q454 404 425 404Q412 404 406 402Q368 386 350 336Q290 115 290 78Q290 50 306 38T341 26Q378 26 414 59T463 140Q466 150 469 151T485 153H489Q504 153 504 145Q504 144 502 134Q486 77 440 33T333 -11Q263 -11 227 52Q186 -10 133 -10H127Q78 -10 57 16T35 71Q35 103 54 123T99 143Q142 143 142 101Q142 81 130 66T107 46T94 41L91 40Q91 39 97 36T113 29T132 26Q168 26 194 71Q203 87 217 139T245 247T261 313Q266 340 266 352Q266 380 251 392T217 404Q177 404 142 372T93 290Q91 281 88 280T72 278H58Q52 284 52 289Z"/>
                                                    <path id="MJX-314-TEX-N-33" d="M127 463Q100 463 85 480T69 524Q69 579 117 622T233 665Q268 665 277 664Q351 652 390 611T430 522Q430 470 396 421T302 350L299 348Q299 347 308 345T337 336T375 315Q457 262 457 175Q457 96 395 37T238 -22Q158 -22 100 21T42 130Q42 158 60 175T105 193Q133 193 151 175T169 130Q169 119 166 110T159 94T148 82T136 74T126 70T118 67L114 66Q165 21 238 21Q293 21 321 74Q338 107 338 175V195Q338 290 274 322Q259 328 213 329L171 330L168 332Q166 335 166 348Q166 366 174 366Q202 366 232 371Q266 376 294 413T322 525V533Q322 590 287 612Q265 626 240 626Q208 626 181 615T143 592T132 580H135Q138 579 143 578T153 573T165 566T175 555T183 540T186 520Q186 498 172 481T127 463Z"/>
                                                </defs>
                                                <g stroke="currentColor" fill="currentColor" stroke-width="0" transform="scale(1,-1)">
                                                    <g data-mml-node="math">
                                                        <g data-mml-node="msub">
                                                            <g data-mml-node="mi">
                                                                <use data-c="1D465" xlink:href="#MJX-314-TEX-I-1D465"/>
                                                            </g>
                                                            <g data-mml-node="mn" transform="translate(605,-150) scale(0.707)">
                                                                <use data-c="33" xlink:href="#MJX-314-TEX-N-33"/>
                                                            </g>
                                                        </g>
                                                    </g>
                                                </g>
                                            </svg>
                                        </mjx-container>
                                    </span>
                                </div>
                            </div>
                        </div>
                    </foreignObject>
                    <text x="353" y="171" fill="light-dark(#000000, #ffffff)" font-family="&quot;Helvetica&quot;" font-size="25px" text-anchor="middle">
                        \( x_...
                    </text>
                </switch>
            </g>
        </g>
        <g>
            <ellipse cx="513" cy="163" rx="32" ry="32" fill="#ffffff" stroke="#000000" stroke-width="2" pointer-events="all" style="fill: light-dark(#ffffff, var(--ge-dark-color, #121212)); stroke: light-dark(rgb(0, 0, 0), rgb(255, 255, 255));"/>
        </g>
        <g>
            <g transform="translate(-0.5 -0.5)">
                <switch>
                    <foreignObject style="overflow: visible; text-align: left;" pointer-events="none" width="100%" height="100%" requiredFeatures="http://www.w3.org/TR/SVG11/feature#Extensibility">
                        <div xmlns="http://www.w3.org/1999/xhtml" style="display: flex; align-items: unsafe center; justify-content: unsafe center; width: 62px; height: 1px; padding-top: 163px; margin-left: 482px;">
                            <div style="box-sizing: border-box; font-size: 0; text-align: center; color: #000000; ">
                                <div style="display: inline-block; font-size: 25px; font-family: &quot;Helvetica&quot;; color: light-dark(#000000, #ffffff); line-height: 1.2; pointer-events: all; white-space: normal; word-wrap: normal; ">
                                    <span style="color: light-dark(rgb(0, 0, 0), rgb(237, 237, 237));">
                                        <mjx-container class="MathJax" jax="SVG">
                                            <svg xmlns="http://www.w3.org/2000/svg" width="2.282ex" height="1.339ex" role="img" focusable="false" viewBox="0 -442 1008.6 592" xmlns:xlink="http://www.w3.org/1999/xlink" style="vertical-align: -0.339ex;">
                                                <defs>
                                                    <path id="MJX-315-TEX-I-1D465" d="M52 289Q59 331 106 386T222 442Q257 442 286 424T329 379Q371 442 430 442Q467 442 494 420T522 361Q522 332 508 314T481 292T458 288Q439 288 427 299T415 328Q415 374 465 391Q454 404 425 404Q412 404 406 402Q368 386 350 336Q290 115 290 78Q290 50 306 38T341 26Q378 26 414 59T463 140Q466 150 469 151T485 153H489Q504 153 504 145Q504 144 502 134Q486 77 440 33T333 -11Q263 -11 227 52Q186 -10 133 -10H127Q78 -10 57 16T35 71Q35 103 54 123T99 143Q142 143 142 101Q142 81 130 66T107 46T94 41L91 40Q91 39 97 36T113 29T132 26Q168 26 194 71Q203 87 217 139T245 247T261 313Q266 340 266 352Q266 380 251 392T217 404Q177 404 142 372T93 290Q91 281 88 280T72 278H58Q52 284 52 289Z"/>
                                                    <path id="MJX-315-TEX-N-34" d="M462 0Q444 3 333 3Q217 3 199 0H190V46H221Q241 46 248 46T265 48T279 53T286 61Q287 63 287 115V165H28V211L179 442Q332 674 334 675Q336 677 355 677H373L379 671V211H471V165H379V114Q379 73 379 66T385 54Q393 47 442 46H471V0H462ZM293 211V545L74 212L183 211H293Z"/>
                                                </defs>
                                                <g stroke="currentColor" fill="currentColor" stroke-width="0" transform="scale(1,-1)">
                                                    <g data-mml-node="math">
                                                        <g data-mml-node="msub">
                                                            <g data-mml-node="mi">
                                                                <use data-c="1D465" xlink:href="#MJX-315-TEX-I-1D465"/>
                                                            </g>
                                                            <g data-mml-node="mn" transform="translate(605,-150) scale(0.707)">
                                                                <use data-c="34" xlink:href="#MJX-315-TEX-N-34"/>
                                                            </g>
                                                        </g>
                                                    </g>
                                                </g>
                                            </svg>
                                        </mjx-container>
                                    </span>
                                </div>
                            </div>
                        </div>
                    </foreignObject>
                    <text x="513" y="171" fill="light-dark(#000000, #ffffff)" font-family="&quot;Helvetica&quot;" font-size="25px" text-anchor="middle">
                        \( x_...
                    </text>
                </switch>
            </g>
        </g>
        <g>
            <ellipse cx="673" cy="163" rx="32" ry="32" fill="#ffffff" stroke="#000000" stroke-width="2" pointer-events="all" style="fill: light-dark(#ffffff, var(--ge-dark-color, #121212)); stroke: light-dark(rgb(0, 0, 0), rgb(255, 255, 255));"/>
        </g>
        <g>
            <g transform="translate(-0.5 -0.5)">
                <switch>
                    <foreignObject style="overflow: visible; text-align: left;" pointer-events="none" width="100%" height="100%" requiredFeatures="http://www.w3.org/TR/SVG11/feature#Extensibility">
                        <div xmlns="http://www.w3.org/1999/xhtml" style="display: flex; align-items: unsafe center; justify-content: unsafe center; width: 62px; height: 1px; padding-top: 163px; margin-left: 642px;">
                            <div style="box-sizing: border-box; font-size: 0; text-align: center; color: #000000; ">
                                <div style="display: inline-block; font-size: 25px; font-family: &quot;Helvetica&quot;; color: light-dark(#000000, #ffffff); line-height: 1.2; pointer-events: all; white-space: normal; word-wrap: normal; ">
                                    <span style="color: light-dark(rgb(0, 0, 0), rgb(237, 237, 237));">
                                        <mjx-container class="MathJax" jax="SVG">
                                            <svg xmlns="http://www.w3.org/2000/svg" width="2.282ex" height="1.375ex" role="img" focusable="false" viewBox="0 -442 1008.6 607.6" xmlns:xlink="http://www.w3.org/1999/xlink" style="vertical-align: -0.375ex;">
                                                <defs>
                                                    <path id="MJX-316-TEX-I-1D465" d="M52 289Q59 331 106 386T222 442Q257 442 286 424T329 379Q371 442 430 442Q467 442 494 420T522 361Q522 332 508 314T481 292T458 288Q439 288 427 299T415 328Q415 374 465 391Q454 404 425 404Q412 404 406 402Q368 386 350 336Q290 115 290 78Q290 50 306 38T341 26Q378 26 414 59T463 140Q466 150 469 151T485 153H489Q504 153 504 145Q504 144 502 134Q486 77 440 33T333 -11Q263 -11 227 52Q186 -10 133 -10H127Q78 -10 57 16T35 71Q35 103 54 123T99 143Q142 143 142 101Q142 81 130 66T107 46T94 41L91 40Q91 39 97 36T113 29T132 26Q168 26 194 71Q203 87 217 139T245 247T261 313Q266 340 266 352Q266 380 251 392T217 404Q177 404 142 372T93 290Q91 281 88 280T72 278H58Q52 284 52 289Z"/>
                                                    <path id="MJX-316-TEX-N-35" d="M164 157Q164 133 148 117T109 101H102Q148 22 224 22Q294 22 326 82Q345 115 345 210Q345 313 318 349Q292 382 260 382H254Q176 382 136 314Q132 307 129 306T114 304Q97 304 95 310Q93 314 93 485V614Q93 664 98 664Q100 666 102 666Q103 666 123 658T178 642T253 634Q324 634 389 662Q397 666 402 666Q410 666 410 648V635Q328 538 205 538Q174 538 149 544L139 546V374Q158 388 169 396T205 412T256 420Q337 420 393 355T449 201Q449 109 385 44T229 -22Q148 -22 99 32T50 154Q50 178 61 192T84 210T107 214Q132 214 148 197T164 157Z"/>
                                                </defs>
                                                <g stroke="currentColor" fill="currentColor" stroke-width="0" transform="scale(1,-1)">
                                                    <g data-mml-node="math">
                                                        <g data-mml-node="msub">
                                                            <g data-mml-node="mi">
                                                                <use data-c="1D465" xlink:href="#MJX-316-TEX-I-1D465"/>
                                                            </g>
                                                            <g data-mml-node="mn" transform="translate(605,-150) scale(0.707)">
                                                                <use data-c="35" xlink:href="#MJX-316-TEX-N-35"/>
                                                            </g>
                                                        </g>
                                                    </g>
                                                </g>
                                            </svg>
                                        </mjx-container>
                                    </span>
                                </div>
                            </div>
                        </div>
                    </foreignObject>
                    <text x="673" y="171" fill="light-dark(#000000, #ffffff)" font-family="&quot;Helvetica&quot;" font-size="25px" text-anchor="middle">
                        \( x_...
                    </text>
                </switch>
            </g>
        </g>
        <g>
            <rect x="93" y="1" width="52" height="52" fill="#ffffff" stroke="#000000" stroke-width="2" pointer-events="all" style="fill: light-dark(#ffffff, var(--ge-dark-color, #121212)); stroke: light-dark(rgb(0, 0, 0), rgb(255, 255, 255));"/>
        </g>
        <g>
            <g transform="translate(-0.5 -0.5)">
                <switch>
                    <foreignObject style="overflow: visible; text-align: left;" pointer-events="none" width="100%" height="100%" requiredFeatures="http://www.w3.org/TR/SVG11/feature#Extensibility">
                        <div xmlns="http://www.w3.org/1999/xhtml" style="display: flex; align-items: unsafe center; justify-content: unsafe center; width: 50px; height: 1px; padding-top: 27px; margin-left: 94px;">
                            <div style="box-sizing: border-box; font-size: 0; text-align: center; color: #000000; ">
                                <div style="display: inline-block; font-size: 25px; font-family: &quot;Helvetica&quot;; color: light-dark(#000000, #ffffff); line-height: 1.2; pointer-events: all; white-space: normal; word-wrap: normal; ">
                                    <mjx-container class="MathJax" jax="SVG">
                                        <svg xmlns="http://www.w3.org/2000/svg" width="2.096ex" height="2.059ex" role="img" focusable="false" viewBox="0 -705 926.6 910" xmlns:xlink="http://www.w3.org/1999/xlink" style="vertical-align: -0.464ex;">
                                            <defs>
                                                <path id="MJX-317-TEX-I-1D453" d="M118 -162Q120 -162 124 -164T135 -167T147 -168Q160 -168 171 -155T187 -126Q197 -99 221 27T267 267T289 382V385H242Q195 385 192 387Q188 390 188 397L195 425Q197 430 203 430T250 431Q298 431 298 432Q298 434 307 482T319 540Q356 705 465 705Q502 703 526 683T550 630Q550 594 529 578T487 561Q443 561 443 603Q443 622 454 636T478 657L487 662Q471 668 457 668Q445 668 434 658T419 630Q412 601 403 552T387 469T380 433Q380 431 435 431Q480 431 487 430T498 424Q499 420 496 407T491 391Q489 386 482 386T428 385H372L349 263Q301 15 282 -47Q255 -132 212 -173Q175 -205 139 -205Q107 -205 81 -186T55 -132Q55 -95 76 -78T118 -61Q162 -61 162 -103Q162 -122 151 -136T127 -157L118 -162Z"/>
                                                <path id="MJX-317-TEX-N-31" d="M213 578L200 573Q186 568 160 563T102 556H83V602H102Q149 604 189 617T245 641T273 663Q275 666 285 666Q294 666 302 660V361L303 61Q310 54 315 52T339 48T401 46H427V0H416Q395 3 257 3Q121 3 100 0H88V46H114Q136 46 152 46T177 47T193 50T201 52T207 57T213 61V578Z"/>
                                            </defs>
                                            <g stroke="currentColor" fill="currentColor" stroke-width="0" transform="scale(1,-1)">
                                                <g data-mml-node="math">
                                                    <g data-mml-node="msub">
                                                        <g data-mml-node="mi">
                                                            <use data-c="1D453" xlink:href="#MJX-317-TEX-I-1D453"/>
                                                        </g>
                                                        <g data-mml-node="mn" transform="translate(523,-150) scale(0.707)">
                                                            <use data-c="31" xlink:href="#MJX-317-TEX-N-31"/>
                                                        </g>
                                                    </g>
                                                </g>
                                            </g>
                                        </svg>
                                    </mjx-container>
                                </div>
                            </div>
                        </div>
                    </foreignObject>
                    <text x="119" y="35" fill="light-dark(#000000, #ffffff)" font-family="&quot;Helvetica&quot;" font-size="25px" text-anchor="middle">
                        \( f...
                    </text>
                </switch>
            </g>
        </g>
        <g>
            <rect x="253" y="1" width="52" height="52" fill="#ffffff" stroke="#000000" stroke-width="2" pointer-events="all" style="fill: light-dark(#ffffff, var(--ge-dark-color, #121212)); stroke: light-dark(rgb(0, 0, 0), rgb(255, 255, 255));"/>
        </g>
        <g>
            <g transform="translate(-0.5 -0.5)">
                <switch>
                    <foreignObject style="overflow: visible; text-align: left;" pointer-events="none" width="100%" height="100%" requiredFeatures="http://www.w3.org/TR/SVG11/feature#Extensibility">
                        <div xmlns="http://www.w3.org/1999/xhtml" style="display: flex; align-items: unsafe center; justify-content: unsafe center; width: 50px; height: 1px; padding-top: 27px; margin-left: 254px;">
                            <div style="box-sizing: border-box; font-size: 0; text-align: center; color: #000000; ">
                                <div style="display: inline-block; font-size: 25px; font-family: &quot;Helvetica&quot;; color: light-dark(#000000, #ffffff); line-height: 1.2; pointer-events: all; font-weight: bold; white-space: normal; word-wrap: normal; ">
                                    <span style="color: light-dark(rgb(0, 0, 0), rgb(237, 237, 237)); font-weight: 400;">
                                        <mjx-container class="MathJax" jax="SVG">
                                            <svg xmlns="http://www.w3.org/2000/svg" width="2.096ex" height="2.059ex" role="img" focusable="false" viewBox="0 -705 926.6 910" xmlns:xlink="http://www.w3.org/1999/xlink" style="vertical-align: -0.464ex;">
                                                <defs>
                                                    <path id="MJX-318-TEX-I-1D453" d="M118 -162Q120 -162 124 -164T135 -167T147 -168Q160 -168 171 -155T187 -126Q197 -99 221 27T267 267T289 382V385H242Q195 385 192 387Q188 390 188 397L195 425Q197 430 203 430T250 431Q298 431 298 432Q298 434 307 482T319 540Q356 705 465 705Q502 703 526 683T550 630Q550 594 529 578T487 561Q443 561 443 603Q443 622 454 636T478 657L487 662Q471 668 457 668Q445 668 434 658T419 630Q412 601 403 552T387 469T380 433Q380 431 435 431Q480 431 487 430T498 424Q499 420 496 407T491 391Q489 386 482 386T428 385H372L349 263Q301 15 282 -47Q255 -132 212 -173Q175 -205 139 -205Q107 -205 81 -186T55 -132Q55 -95 76 -78T118 -61Q162 -61 162 -103Q162 -122 151 -136T127 -157L118 -162Z"/>
                                                    <path id="MJX-318-TEX-N-32" d="M109 429Q82 429 66 447T50 491Q50 562 103 614T235 666Q326 666 387 610T449 465Q449 422 429 383T381 315T301 241Q265 210 201 149L142 93L218 92Q375 92 385 97Q392 99 409 186V189H449V186Q448 183 436 95T421 3V0H50V19V31Q50 38 56 46T86 81Q115 113 136 137Q145 147 170 174T204 211T233 244T261 278T284 308T305 340T320 369T333 401T340 431T343 464Q343 527 309 573T212 619Q179 619 154 602T119 569T109 550Q109 549 114 549Q132 549 151 535T170 489Q170 464 154 447T109 429Z"/>
                                                </defs>
                                                <g stroke="currentColor" fill="currentColor" stroke-width="0" transform="scale(1,-1)">
                                                    <g data-mml-node="math">
                                                        <g data-mml-node="msub">
                                                            <g data-mml-node="mi">
                                                                <use data-c="1D453" xlink:href="#MJX-318-TEX-I-1D453"/>
                                                            </g>
                                                            <g data-mml-node="mn" transform="translate(523,-150) scale(0.707)">
                                                                <use data-c="32" xlink:href="#MJX-318-TEX-N-32"/>
                                                            </g>
                                                        </g>
                                                    </g>
                                                </g>
                                            </svg>
                                        </mjx-container>
                                    </span>
                                </div>
                            </div>
                        </div>
                    </foreignObject>
                    <text x="279" y="35" fill="light-dark(#000000, #ffffff)" font-family="&quot;Helvetica&quot;" font-size="25px" text-anchor="middle" font-weight="bold">
                        \( f...
                    </text>
                </switch>
            </g>
        </g>
        <g>
            <rect x="413" y="1" width="52" height="52" fill="#ffffff" stroke="#000000" stroke-width="2" pointer-events="all" style="fill: light-dark(#ffffff, var(--ge-dark-color, #121212)); stroke: light-dark(rgb(0, 0, 0), rgb(255, 255, 255));"/>
        </g>
        <g>
            <g transform="translate(-0.5 -0.5)">
                <switch>
                    <foreignObject style="overflow: visible; text-align: left;" pointer-events="none" width="100%" height="100%" requiredFeatures="http://www.w3.org/TR/SVG11/feature#Extensibility">
                        <div xmlns="http://www.w3.org/1999/xhtml" style="display: flex; align-items: unsafe center; justify-content: unsafe center; width: 50px; height: 1px; padding-top: 27px; margin-left: 414px;">
                            <div style="box-sizing: border-box; font-size: 0; text-align: center; color: #000000; ">
                                <div style="display: inline-block; font-size: 25px; font-family: &quot;Helvetica&quot;; color: light-dark(#000000, #ffffff); line-height: 1.2; pointer-events: all; white-space: normal; word-wrap: normal; ">
                                    <span style="color: light-dark(rgb(0, 0, 0), rgb(237, 237, 237));">
                                        <mjx-container class="MathJax" jax="SVG">
                                            <svg xmlns="http://www.w3.org/2000/svg" width="2.096ex" height="2.059ex" role="img" focusable="false" viewBox="0 -705 926.6 910" xmlns:xlink="http://www.w3.org/1999/xlink" style="vertical-align: -0.464ex;">
                                                <defs>
                                                    <path id="MJX-319-TEX-I-1D453" d="M118 -162Q120 -162 124 -164T135 -167T147 -168Q160 -168 171 -155T187 -126Q197 -99 221 27T267 267T289 382V385H242Q195 385 192 387Q188 390 188 397L195 425Q197 430 203 430T250 431Q298 431 298 432Q298 434 307 482T319 540Q356 705 465 705Q502 703 526 683T550 630Q550 594 529 578T487 561Q443 561 443 603Q443 622 454 636T478 657L487 662Q471 668 457 668Q445 668 434 658T419 630Q412 601 403 552T387 469T380 433Q380 431 435 431Q480 431 487 430T498 424Q499 420 496 407T491 391Q489 386 482 386T428 385H372L349 263Q301 15 282 -47Q255 -132 212 -173Q175 -205 139 -205Q107 -205 81 -186T55 -132Q55 -95 76 -78T118 -61Q162 -61 162 -103Q162 -122 151 -136T127 -157L118 -162Z"/>
                                                    <path id="MJX-319-TEX-N-33" d="M127 463Q100 463 85 480T69 524Q69 579 117 622T233 665Q268 665 277 664Q351 652 390 611T430 522Q430 470 396 421T302 350L299 348Q299 347 308 345T337 336T375 315Q457 262 457 175Q457 96 395 37T238 -22Q158 -22 100 21T42 130Q42 158 60 175T105 193Q133 193 151 175T169 130Q169 119 166 110T159 94T148 82T136 74T126 70T118 67L114 66Q165 21 238 21Q293 21 321 74Q338 107 338 175V195Q338 290 274 322Q259 328 213 329L171 330L168 332Q166 335 166 348Q166 366 174 366Q202 366 232 371Q266 376 294 413T322 525V533Q322 590 287 612Q265 626 240 626Q208 626 181 615T143 592T132 580H135Q138 579 143 578T153 573T165 566T175 555T183 540T186 520Q186 498 172 481T127 463Z"/>
                                                </defs>
                                                <g stroke="currentColor" fill="currentColor" stroke-width="0" transform="scale(1,-1)">
                                                    <g data-mml-node="math">
                                                        <g data-mml-node="msub">
                                                            <g data-mml-node="mi">
                                                                <use data-c="1D453" xlink:href="#MJX-319-TEX-I-1D453"/>
                                                            </g>
                                                            <g data-mml-node="mn" transform="translate(523,-150) scale(0.707)">
                                                                <use data-c="33" xlink:href="#MJX-319-TEX-N-33"/>
                                                            </g>
                                                        </g>
                                                    </g>
                                                </g>
                                            </svg>
                                        </mjx-container>
                                    </span>
                                </div>
                            </div>
                        </div>
                    </foreignObject>
                    <text x="439" y="35" fill="light-dark(#000000, #ffffff)" font-family="&quot;Helvetica&quot;" font-size="25px" text-anchor="middle">
                        \( f...
                    </text>
                </switch>
            </g>
        </g>
        <g>
            <rect x="573" y="1" width="52" height="52" fill="#ffffff" stroke="#000000" stroke-width="2" pointer-events="all" style="fill: light-dark(#ffffff, var(--ge-dark-color, #121212)); stroke: light-dark(rgb(0, 0, 0), rgb(255, 255, 255));"/>
        </g>
        <g>
            <g transform="translate(-0.5 -0.5)">
                <switch>
                    <foreignObject style="overflow: visible; text-align: left;" pointer-events="none" width="100%" height="100%" requiredFeatures="http://www.w3.org/TR/SVG11/feature#Extensibility">
                        <div xmlns="http://www.w3.org/1999/xhtml" style="display: flex; align-items: unsafe center; justify-content: unsafe center; width: 50px; height: 1px; padding-top: 27px; margin-left: 574px;">
                            <div style="box-sizing: border-box; font-size: 0; text-align: center; color: #000000; ">
                                <div style="display: inline-block; font-size: 25px; font-family: &quot;Helvetica&quot;; color: light-dark(#000000, #ffffff); line-height: 1.2; pointer-events: all; white-space: normal; word-wrap: normal; ">
                                    <span style="color: light-dark(rgb(0, 0, 0), rgb(237, 237, 237));">
                                        <mjx-container class="MathJax" jax="SVG">
                                            <svg xmlns="http://www.w3.org/2000/svg" width="2.096ex" height="2.059ex" role="img" focusable="false" viewBox="0 -705 926.6 910" xmlns:xlink="http://www.w3.org/1999/xlink" style="vertical-align: -0.464ex;">
                                                <defs>
                                                    <path id="MJX-320-TEX-I-1D453" d="M118 -162Q120 -162 124 -164T135 -167T147 -168Q160 -168 171 -155T187 -126Q197 -99 221 27T267 267T289 382V385H242Q195 385 192 387Q188 390 188 397L195 425Q197 430 203 430T250 431Q298 431 298 432Q298 434 307 482T319 540Q356 705 465 705Q502 703 526 683T550 630Q550 594 529 578T487 561Q443 561 443 603Q443 622 454 636T478 657L487 662Q471 668 457 668Q445 668 434 658T419 630Q412 601 403 552T387 469T380 433Q380 431 435 431Q480 431 487 430T498 424Q499 420 496 407T491 391Q489 386 482 386T428 385H372L349 263Q301 15 282 -47Q255 -132 212 -173Q175 -205 139 -205Q107 -205 81 -186T55 -132Q55 -95 76 -78T118 -61Q162 -61 162 -103Q162 -122 151 -136T127 -157L118 -162Z"/>
                                                    <path id="MJX-320-TEX-N-34" d="M462 0Q444 3 333 3Q217 3 199 0H190V46H221Q241 46 248 46T265 48T279 53T286 61Q287 63 287 115V165H28V211L179 442Q332 674 334 675Q336 677 355 677H373L379 671V211H471V165H379V114Q379 73 379 66T385 54Q393 47 442 46H471V0H462ZM293 211V545L74 212L183 211H293Z"/>
                                                </defs>
                                                <g stroke="currentColor" fill="currentColor" stroke-width="0" transform="scale(1,-1)">
                                                    <g data-mml-node="math">
                                                        <g data-mml-node="msub">
                                                            <g data-mml-node="mi">
                                                                <use data-c="1D453" xlink:href="#MJX-320-TEX-I-1D453"/>
                                                            </g>
                                                            <g data-mml-node="mn" transform="translate(523,-150) scale(0.707)">
                                                                <use data-c="34" xlink:href="#MJX-320-TEX-N-34"/>
                                                            </g>
                                                        </g>
                                                    </g>
                                                </g>
                                            </svg>
                                        </mjx-container>
                                    </span>
                                </div>
                            </div>
                        </div>
                    </foreignObject>
                    <text x="599" y="35" fill="light-dark(#000000, #ffffff)" font-family="&quot;Helvetica&quot;" font-size="25px" text-anchor="middle">
                        \( f...
                    </text>
                </switch>
            </g>
        </g>
        <g>
            <path d="M 102.55 53 L 50.09 135.94" fill="none" stroke="#000000" stroke-width="2" stroke-miterlimit="10" pointer-events="stroke" style="stroke: light-dark(rgb(0, 0, 0), rgb(255, 255, 255));"/>
        </g>
        <g>
            <path d="M 133.2 53 L 177.86 134.81" fill="none" stroke="#000000" stroke-width="2" stroke-miterlimit="10" pointer-events="stroke" style="stroke: light-dark(rgb(0, 0, 0), rgb(255, 255, 255));"/>
        </g>
        <g>
            <path d="M 253 41.38 L 61.01 147.53" fill="none" stroke="#000000" stroke-width="2" stroke-miterlimit="10" pointer-events="stroke" style="stroke: light-dark(rgb(0, 0, 0), rgb(255, 255, 255));"/>
        </g>
        <g>
            <path d="M 262.55 53 L 210.09 135.94" fill="none" stroke="#000000" stroke-width="2" stroke-miterlimit="10" pointer-events="stroke" style="stroke: light-dark(rgb(0, 0, 0), rgb(255, 255, 255));"/>
        </g>
        <g>
            <path d="M 413 41.38 L 221.01 147.53" fill="none" stroke="#000000" stroke-width="2" stroke-miterlimit="10" pointer-events="stroke" style="stroke: light-dark(rgb(0, 0, 0), rgb(255, 255, 255));"/>
        </g>
        <g>
            <path d="M 422.55 53 L 370.09 135.94" fill="none" stroke="#000000" stroke-width="2" stroke-miterlimit="10" pointer-events="stroke" style="stroke: light-dark(rgb(0, 0, 0), rgb(255, 255, 255));"/>
        </g>
        <g>
            <path d="M 453.2 53 L 497.86 134.81" fill="none" stroke="#000000" stroke-width="2" stroke-miterlimit="10" pointer-events="stroke" style="stroke: light-dark(rgb(0, 0, 0), rgb(255, 255, 255));"/>
        </g>
        <g>
            <path d="M 582.55 53 L 530.09 135.94" fill="none" stroke="#000000" stroke-width="2" stroke-miterlimit="10" pointer-events="stroke" style="stroke: light-dark(rgb(0, 0, 0), rgb(255, 255, 255));"/>
        </g>
        <g>
            <path d="M 613.2 53 L 657.86 134.81" fill="none" stroke="#000000" stroke-width="2" stroke-miterlimit="10" pointer-events="stroke" style="stroke: light-dark(rgb(0, 0, 0), rgb(255, 255, 255));"/>
        </g>
    </g>
    <switch>
        <g requiredFeatures="http://www.w3.org/TR/SVG11/feature#Extensibility"/>
        <a transform="translate(0,-5)" xlink:href="https://www.drawio.com/doc/faq/svg-export-text-problems" target="_blank">
            <text text-anchor="middle" font-size="10px" x="50%" y="100%">
                Text is not SVG - cannot display
            </text>
        </a>
    </switch>
</svg>
